<svg width="31" height="36" viewBox="0 0 31 36" fill="none" xmlns="http://www.w3.org/2000/svg">
<path d="M3.62334 6.24881C3.59076 6.39617 3.70543 6.57681 3.76375 6.71253C3.93335 7.10713 4.15863 7.48814 4.40629 7.84286C5.41704 9.29045 6.77126 10.5244 8.22944 11.5634C8.83556 11.9954 9.46281 12.3956 10.1207 12.7531C10.2815 12.8405 10.4466 12.9206 10.6088 13.0058C10.6972 13.0523 10.8092 13.122 10.9138 13.1225C11.091 13.1234 11.3039 12.9246 11.4629 12.8537C11.8049 12.701 12.2122 12.6029 12.5915 12.6276C12.9484 12.6508 13.2795 12.7406 13.5981 12.893C13.7415 12.9615 13.9503 13.1493 14.1167 13.1148C14.362 13.064 14.6321 12.883 14.8488 12.7656C15.3639 12.4863 15.8611 12.1822 16.3435 11.8547C17.8574 10.8267 19.3202 9.59694 20.3804 8.13268C20.7783 7.58326 21.216 6.9663 21.3767 6.30677C21.2368 6.41429 21.136 6.56101 21.0102 6.68355C20.654 7.03044 20.2395 7.36603 19.7599 7.54712C19.6085 7.60433 19.4379 7.67432 19.2719 7.67252C19.0351 7.66995 18.7949 7.35047 18.6313 7.21016C18.1947 6.83565 17.7043 6.50351 17.1976 6.22014C15.8076 5.44279 14.2246 5.07037 12.622 5.0037C12.1482 4.98398 11.6567 5.04651 11.1883 5.11064C9.86891 5.29128 8.6241 5.71591 7.49735 6.39526C7.12535 6.61956 6.75821 6.87278 6.42971 7.1522C6.25327 7.30227 6.03898 7.5792 5.81963 7.66322C5.62977 7.73597 5.31842 7.58955 5.14854 7.51509C4.56927 7.26112 3.94092 6.77841 3.62334 6.24881ZM4.44695 9.78469C4.30419 10.0995 4.11424 10.3952 3.97191 10.7121C3.67569 11.3718 3.45642 12.0625 3.33157 12.7699C3.18286 13.6124 3.22679 14.4689 3.22679 15.3204C3.22679 16.7002 3.23945 18.0919 3.09959 19.4649C2.93292 21.1014 2.54356 22.7371 1.93266 24.276C1.6605 24.9615 1.29522 25.6021 1 26.2758C1.18388 26.198 1.33176 26.0528 1.48806 25.9338C1.76333 25.7243 2.03884 25.5151 2.31167 25.3027C2.70542 24.9961 3.10444 24.6949 3.50133 24.392C3.7047 24.2368 3.94708 24.0923 4.11141 23.8992C4.49423 24.3386 4.78222 24.8899 5.09373 25.3774C5.51389 26.0349 5.97608 26.6756 6.3687 27.3482C6.64708 27.1619 6.88541 26.9061 7.1313 26.6827C7.43286 26.4087 7.7508 26.15 8.04642 25.8701C8.19452 25.7298 8.35433 25.6028 8.50398 25.4643C8.55742 25.4148 8.63115 25.321 8.71433 25.321C8.83242 25.321 8.9293 25.5582 8.98231 25.6382C9.21127 25.9836 9.43295 26.3335 9.65736 26.6816C10.3313 27.7268 11.0073 28.7713 11.6893 29.8117C11.8725 30.0911 12.0505 30.3737 12.2352 30.6522C12.3207 30.7812 12.3844 30.928 12.5305 31C13.4181 29.7255 14.2337 28.3938 15.0685 27.0873C15.3041 26.7186 15.5426 26.351 15.7847 25.986C15.9352 25.7591 16.136 25.5179 16.2215 25.2614C16.4272 25.3628 16.5701 25.5451 16.7401 25.6912C17.162 26.0541 17.5794 26.4249 17.9907 26.7986C18.1883 26.9782 18.3798 27.2084 18.6313 27.3192C19.1317 26.6138 19.5759 25.8686 20.0474 25.1455C20.3049 24.7507 20.6594 24.3356 20.8276 23.8992C21.1604 24.1084 21.4647 24.3713 21.7732 24.6115C22.2878 25.0122 22.8094 25.4056 23.3289 25.8005C23.5508 25.9692 23.7629 26.1558 24 26.3048C23.9172 26.0318 23.7413 25.7775 23.6113 25.5223C23.4339 25.1739 23.2732 24.8117 23.1283 24.4499C22.587 23.0978 22.194 21.6826 21.9953 20.2474C21.7897 18.762 21.7732 17.2809 21.7732 15.7841C21.7732 14.799 21.8281 13.8038 21.6688 12.8279C21.5554 12.1335 21.3448 11.4468 21.0587 10.7991C20.9061 10.4536 20.7043 10.1299 20.5531 9.78469H20.492C20.2331 10.2262 19.8493 10.621 19.503 11.002C19.3699 11.1483 19.0966 11.3329 19.0406 11.5237C18.998 11.6688 19.1962 11.9122 19.2535 12.0453C19.4143 12.4196 19.5404 12.8257 19.5459 13.2336C19.5598 14.2856 18.8362 15.2268 17.8687 15.6864C17.3005 15.9563 16.6962 16.0449 16.069 16.0449C16.0715 16.3358 16.1459 16.6237 16.1593 16.9144C16.1651 17.0415 16.1213 17.2292 16.1918 17.343C16.242 17.424 16.3534 17.4656 16.435 17.5116C16.6169 17.6141 16.8018 17.7115 16.9841 17.8132C17.4295 18.0618 17.8781 18.3055 18.3263 18.5497C18.5871 18.6917 18.8431 18.8591 19.1194 18.9722V19.0302C18.6965 19.1484 18.2824 19.4493 17.8992 19.6555C17.3321 19.9606 16.6649 20.2205 16.1922 20.6558C15.5812 21.2184 15.1598 21.9847 14.8089 22.711C14.2826 23.8001 13.8797 24.9297 13.5058 26.0729C13.27 26.7944 13.0504 27.5204 12.8312 28.2466C12.731 28.5788 12.5791 28.9185 12.5305 29.261C12.4297 29.1601 12.4011 29.0163 12.3604 28.8843C12.292 28.6621 12.2266 28.4386 12.1541 28.2177C11.8601 27.323 11.6023 26.4174 11.3096 25.5223C10.9642 24.4663 10.5575 23.4108 10.0367 22.4211C9.74836 21.8732 9.43176 21.3081 8.9893 20.8561C8.46524 20.3206 7.76728 20.0067 7.1008 19.6589C6.68744 19.4432 6.28311 19.1784 5.85013 19.0012C6.55121 18.5935 7.27446 18.2172 7.98541 17.8252L8.56499 17.5064C8.6471 17.461 8.75683 17.4201 8.80816 17.3396C8.88238 17.2234 8.83659 17.0164 8.83998 16.8854C8.84724 16.6041 8.91834 16.3258 8.93103 16.0449C7.47179 16.0449 5.96324 15.3646 5.54973 13.9292C5.47554 13.6717 5.44714 13.4131 5.45404 13.1467C5.46337 12.7847 5.57456 12.4055 5.72424 12.0743C5.78955 11.9298 5.9845 11.6865 5.94726 11.5237C5.90553 11.3414 5.61778 11.1379 5.48924 11.002C5.26174 10.7614 5.04641 10.5055 4.83996 10.2484C4.71535 10.0932 4.60554 9.90915 4.44695 9.78469ZM7.1313 12.5091C7.01697 12.9071 6.87089 13.2561 7.02597 13.6684C7.45171 14.8 9.19984 14.8147 10.1207 14.306C9.95237 14.167 9.73469 14.0932 9.54111 13.9912C9.1895 13.8059 8.84346 13.6107 8.50398 13.406C8.19116 13.2174 7.88981 13.0123 7.58886 12.8073C7.43863 12.705 7.30234 12.5778 7.1313 12.5091ZM17.8077 12.5091C16.9246 13.2351 15.8786 13.7228 14.8793 14.277C15.0573 14.4479 15.3681 14.5254 15.6114 14.5724C16.2981 14.7053 17.0845 14.6115 17.6235 14.1524C18.0625 13.7784 18.233 12.9582 17.8077 12.5091ZM8.90053 18.9432V19.0012C10.4295 19.7745 11.2856 21.2812 11.8578 22.7689C12.0008 23.1409 12.1315 23.5211 12.2552 23.8992C12.3261 24.1161 12.3721 24.3727 12.5 24.5658C12.6311 24.3619 12.6861 24.0711 12.757 23.8413C12.8589 23.5105 12.979 23.1806 13.1007 22.8559C13.5228 21.729 14.0726 20.6661 14.9708 19.8127C15.2992 19.5008 15.6761 19.1915 16.0995 19.0012V18.9432C15.7718 18.8091 15.4609 18.6115 15.1538 18.439C14.9877 18.3457 14.8088 18.2757 14.7173 18.1027C14.651 17.9775 14.6658 17.8328 14.6658 17.697C14.6658 17.4578 14.6845 17.2106 14.6606 16.9724C14.5661 16.0288 14.3415 15.0807 13.5371 14.4438C13.1652 14.1493 12.7455 13.9868 12.256 14.0538C11.8918 14.1037 11.5663 14.3289 11.3104 14.5673C10.6477 15.1844 10.3987 16.0576 10.337 16.9144C10.319 17.1636 10.3342 17.4183 10.3342 17.668C10.3342 17.8025 10.3491 17.9486 10.2862 18.0737C10.1912 18.2629 9.99584 18.3508 9.81565 18.4509C9.51686 18.6167 9.21826 18.8131 8.90053 18.9432Z" fill="#1D4419"/>
</svg>
