<svg width="36" height="36" viewBox="0 0 36 36" fill="none" xmlns="http://www.w3.org/2000/svg">
<path fill-rule="evenodd" clip-rule="evenodd" d="M29.8335 6.46676C30.2094 6.30855 30.6208 6.25399 31.025 6.30875C31.4291 6.3635 31.8111 6.52557 32.1314 6.7781C32.4516 7.03062 32.6983 7.36436 32.8458 7.74458C32.9933 8.12479 33.0362 8.53759 32.97 8.94001L29.5202 29.8653C29.1856 31.8837 26.9709 33.0413 25.1198 32.0358C23.5713 31.1947 21.2715 29.8987 19.2028 28.5465C18.1685 27.8696 15.0001 25.7021 15.3895 24.1598C15.7242 22.841 21.0479 17.8854 24.09 14.9391C25.284 13.7815 24.7395 13.1138 23.3295 14.1785C19.828 16.8222 14.2061 20.8423 12.3474 21.974C10.7077 22.9718 9.85285 23.1422 8.83069 22.9718C6.96587 22.6615 5.23642 22.1809 3.82488 21.5953C1.91746 20.8043 2.01025 18.182 3.82336 17.4184L29.8335 6.46676Z" fill="#1D4419"/>
</svg>
